{"title":"Teens With Tits 2 DVDRip","uid":8882013,"size":1626122585,"categoryP":"porn","categoryS":"movies","magnet":"?xt=urn:btih:057fe21d02494db1ebabedf288cbe58b8f34f966&amp;dn=Teens+With+Tits+2+DVDRip&amp;tr=udp%3A%2F%2Ftracker.openbittorrent.com%3A80&amp;tr=udp%3A%2F%2Fopen.demonii.com%3A1337&amp;tr=udp%3A%2F%2Ftracker.coppersurfer.tk%3A6969&amp;tr=udp%3A%2F%2Fexodus.desync.com%3A6969","seeders":0,"leechers":4,"uploader":"malasorte7","files":3,"time":1378351929,"description":" &lt;a href=&quot;http://picturemost.biz/share.php?id=2160_5227DE8F&quot; rel=&quot;nofollow&quot; target=&quot;_NEW&quot;&gt;http://picturemost.biz/share.php?id=2160_5227DE8F&lt;/a&gt;\n\nTeens With Tits # 2 porn Aidan Layne - This spunky 18 year old has a cherry waiting to be pooped in her asshole and we are happy to oblige. Teens With Tits # 2 DVD video This teeny bopper's anal debut is terrific! Katin - This adorable 19 year old surfer chich took a day off the waves to take a ride on a hard cock in her ass! Watch as her firm, tender D-cup tits bounce to a rhythm of a hard ass fucking. Teens With Tits # 2 movie Beatrice - The young ebony beauty amazes herself and us with her double vaginal talent. She finds her new favorite past time and is overwhelmed with the results. Vanilla Skye - This young, big titted beauty show that she is a natural for porn. Her passion for cock is something to be admired. Nautica Thorn - The titsl on this Hawaiian Sex Kitten are enough to make a guy drool. It only gets better when you see how well she can fuck and even sing her ABC's.\n\n\nFormat : AVI\nFormat/Info : Audio Video Interleave\nFormat profile : OpenDML\nFile size : 1.51 GiB\nDuration : 2h 17mn\nOverall bit rate : 1 572 Kbps\nMovie name : DVDVOLUME.Title1.DVDRip\nWriting application : Lavf53.32.100\nOriginal source form/Name : DVDVOLUME\n\nVideo\nID : 0\nFormat : MPEG-4 Visual\nFormat profile : Advanced Simple@L5\nFormat settings, BVOP : 2\nFormat settings, QPel : No\nFormat settings, GMC : No warppoints\nFormat settings, Matrix : Default (H.263)\nMuxing mode : Packed bitstream\nCodec ID : XVID\nCodec ID/Hint : XviD\nDuration : 2h 17mn\nBit rate : 1 367 Kbps\nWidth : 636 pixels\nHeight : 478 pixels\nDisplay aspect ratio : 4:3\nFrame rate : 29.970 fps\nColor space : YUV\nChroma subsampling : 4:2:0\nBit depth : 8 bits\nScan type : Progressive\nCompression mode : Lossy\nBits/(Pixel*Frame) : 0.150\nStream size : 1.32 GiB (87%)\nWriting library : XviD 64\n\nAudio\nID : 1\nFormat : AC-3\nFormat/Info : Audio Coding 3\nMode extension : CM (complete main)\nFormat settings, Endianness : Big\nCodec ID : 2000\nDuration : 2h 17mn\nBit rate mode : Constant\nBit rate : 192 Kbps\nChannel(s) : 2 channels\nChannel positions : Front: L R\nSampling rate : 48.0 KHz\nBit depth : 16 bits\nCompression mode : Lossy\nStream size : 189 MiB (12%)\nAlignment : Aligned on interleaves\nInterleave, duration : 32 ms (0.96 video frame)","torrent":{"xt":"urn:btih:057fe21d02494db1ebabedf288cbe58b8f34f966","amp;dn":"Teens+With+Tits+2+DVDRip","amp;tr":["udp%3A%2F%2Ftracker.openbittorrent.com%3A80","udp%3A%2F%2Fopen.demonii.com%3A1337","udp%3A%2F%2Ftracker.coppersurfer.tk%3A6969","udp%3A%2F%2Fexodus.desync.com%3A6969"],"infoHash":"057fe21d02494db1ebabedf288cbe58b8f34f966","infoHashBuffer":{"type":"Buffer","data":[5,127,226,29,2,73,77,177,235,171,237,242,136,203,229,139,143,52,249,102]},"announce":[],"urlList":[]}}